<svg xmlns="http://www.w3.org/2000/svg" viewBox="0 0 451.4 150.34"><defs><style>.cls-1{fill:#fff;}.cls-2{fill:#0098fa;}</style></defs><g id="Слой_7" data-name="Слой 7"><path class="cls-1" d="M64.32,119h-55V105.87L36.84,70.11H10.92V52.59H63V66.75L36.72,101.43H72.34Z"/><path class="cls-1" d="M95.64,51.39q12.6,0,19.68,6.24t7.08,17.76V119H106.56l-4.44-8.76h-.48a32,32,0,0,1-5.7,5.7,19.37,19.37,0,0,1-6.78,3.24,37,37,0,0,1-9.36,1,22.28,22.28,0,0,1-10.32-2.34,17.05,17.05,0,0,1-7.2-7.08Q59.64,106,59.64,98.67,59.64,88,67,82.83t21.42-5.76l11-.36v-1q0-4.44-2.16-6.3a8.71,8.71,0,0,0-5.88-1.86A32,32,0,0,0,82.68,69,77.4,77.4,0,0,0,73,72.51l-6.6-15.12a49.92,49.92,0,0,1,13-4.5A80.64,80.64,0,0,1,95.64,51.39ZM94.32,89.55q-6.24.24-8.82,2.22a6.63,6.63,0,0,0-2.58,5.58,6.37,6.37,0,0,0,1.8,5,6.9,6.9,0,0,0,4.8,1.62,10.31,10.31,0,0,0,7.14-2.64,8.77,8.77,0,0,0,2.94-6.84V89.31Z"/><path class="cls-1" d="M207,51.39q11.4,0,17.4,5.76t6,18.6V119H207.48V82.83q0-7.56-2-10.5a6.85,6.85,0,0,0-6-2.94,7.73,7.73,0,0,0-7.68,4.86Q189.6,79.11,189.6,88v31H166.68V82.83a29,29,0,0,0-.84-7.74,8.4,8.4,0,0,0-2.52-4.32A6.62,6.62,0,0,0,159,69.39a8,8,0,0,0-6.18,2.4,13.54,13.54,0,0,0-3.06,7,62.85,62.85,0,0,0-.84,11.16v29H126V52.59h17.28l3.36,8.16h.6a19.42,19.42,0,0,1,4.56-4.86,21.16,21.16,0,0,1,6.6-3.3,29.36,29.36,0,0,1,8.76-1.2,26.11,26.11,0,0,1,12.06,2.46A21.11,21.11,0,0,1,187,60.63h.72a20.72,20.72,0,0,1,8.1-6.84A25.49,25.49,0,0,1,207,51.39Z"/><path class="cls-1" d="M447.52,119H412.64L390.08,76.51,381,81.79V119h-31V7.94h31v48.2a72.24,72.24,0,0,1,4.48-7.23c1.7-2.43,3.36-4.74,5-6.92l24-34.05h33.76l-36,49.75Z"/><path class="cls-2" d="M19.38,46.22A12.48,12.48,0,0,1,14.1,41.1a15.89,15.89,0,0,1-1.84-7.78V8H18.2v25.3q0,4.45,2.42,6.85a9.32,9.32,0,0,0,6.82,2.39,9.29,9.29,0,0,0,6.82-2.39c1.62-1.6,2.42-3.88,2.42-6.85V8h5.94v25.3a15.79,15.79,0,0,1-1.84,7.78,12.48,12.48,0,0,1-5.28,5.12A17.26,17.26,0,0,1,27.44,48,17.29,17.29,0,0,1,19.38,46.22Z"/><path class="cls-2" d="M51.26,8.07h7.53l18,31.85V8.07h5.94V47.12H75L57.2,16V47.12H51.26Z"/><path class="cls-2" d="M92.23,8.07h5.94V44.92L95,41.68H117.2v5.44h-25Z"/><path class="cls-2" d="M128.5,45.56a16,16,0,0,1-6.29-7A24.89,24.89,0,0,1,120,27.65a25,25,0,0,1,2.2-10.89,16.12,16.12,0,0,1,6.29-7.09,18.42,18.42,0,0,1,9.71-2.48A18.67,18.67,0,0,1,148,9.67a16,16,0,0,1,6.3,7.09,25.34,25.34,0,0,1,2.17,10.89,25.19,25.19,0,0,1-2.17,10.87,15.83,15.83,0,0,1-6.3,7A18.84,18.84,0,0,1,138.21,48,18.6,18.6,0,0,1,128.5,45.56Zm16.23-4.76a11,11,0,0,0,4.15-5.12,20.44,20.44,0,0,0,1.43-8,20.65,20.65,0,0,0-1.43-8,11.17,11.17,0,0,0-4.15-5.17,11.64,11.64,0,0,0-6.52-1.79,10.88,10.88,0,0,0-10.59,7,20.28,20.28,0,0,0-1.45,8,20.07,20.07,0,0,0,1.45,8,11.23,11.23,0,0,0,4.16,5.12,11.51,11.51,0,0,0,6.43,1.76A11.79,11.79,0,0,0,144.73,40.8Z"/><path class="cls-2" d="M170.11,45.56a16.47,16.47,0,0,1-6.27-7.07,24.49,24.49,0,0,1-2.26-10.84,25,25,0,0,1,2.23-10.86,16.48,16.48,0,0,1,6.27-7.12,17.61,17.61,0,0,1,9.38-2.48q7.09,0,11.17,3.55T196,20.89l-6.27.33a10.83,10.83,0,0,0-3.36-6.33,10.17,10.17,0,0,0-6.93-2.25,10.59,10.59,0,0,0-6.16,1.81,11.78,11.78,0,0,0-4.1,5.2,20.16,20.16,0,0,0-1.45,8,20.21,20.21,0,0,0,1.45,8,11.39,11.39,0,0,0,4.1,5.14,10.79,10.79,0,0,0,6.11,1.76,10.24,10.24,0,0,0,7.28-2.45,11.73,11.73,0,0,0,3.33-7l6.27.33a17.61,17.61,0,0,1-5.5,10.67Q186.44,48,179.41,48A17.54,17.54,0,0,1,170.11,45.56Z"/><path class="cls-2" d="M202.78,8.07h5.94V26.72L225.17,8.07h7.2l-15,17.05,16,22h-7L213.45,29.3l-4.73,5.28V47.12h-5.94Z"/><g id="Icon"><path class="cls-1" d="M329.66,80a7,7,0,0,1,4.57,1.12,5,5,0,0,1,1.87,2.13,70.41,70.41,0,0,1,2.32,8.12l4.05,15.11,4.78,17.84c.86,3.18,1.95,6.43,2.51,9.67a5.17,5.17,0,0,1-.9,4.46,7.63,7.63,0,0,1-5.31,3,7.08,7.08,0,0,1-4.94-1.29,5,5,0,0,1-1.86-2.65c-1.1-3-1.79-6.42-2.62-9.52l-5-18.67-3.93-14.6a64.57,64.57,0,0,1-1.95-7.53,5.65,5.65,0,0,1,1.16-4.34A7.57,7.57,0,0,1,329.66,80Z"/><path class="cls-1" d="M251,80a7.38,7.38,0,0,1,4.7,1.19,6.55,6.55,0,0,1,2.92,4.14,5.57,5.57,0,0,1,0,2.19c-.54,2.6-1.35,5.19-2,7.76l-3.83,14.27L247.9,127.5c-.82,3.05-1.54,6.15-2.47,9.17a8.71,8.71,0,0,1-1.07,2.44,6.61,6.61,0,0,1-4.63,2.34,7.78,7.78,0,0,1-4.57-1,6.89,6.89,0,0,1-3.19-4.33,1.77,1.77,0,0,1-.08-.31,7.81,7.81,0,0,1,.39-2.77c.71-3,1.6-6,2.41-9l4.65-17.34,3.82-14.26c.75-2.79,1.42-5.63,2.3-8.38a4.21,4.21,0,0,1,.63-1.38A6.67,6.67,0,0,1,251,80Z"/><path class="cls-2" d="M289.27,8l1.17,0c.39,0,.77,0,1.16,0l1.17,0,1.16,0,1.16.08,1.16.1,1.16.14,1.15.16c.39.05.77.11,1.15.18l1.15.21,1.14.24,1.13.26,1.13.29,1.12.31,1.12.34,1.1.37,1.1.39,1.09.41,1.08.44,1.07.47,1.05.49,1.05.51c.35.17.69.35,1,.54s.69.36,1,.56.68.38,1,.58l1,.6,1,.63,1,.65,1,.67.93.7.92.71c.31.24.61.49.9.74l.95.8.92.83.91.85.88.87c.29.3.58.59.86.89l.85.92.81.93c.27.32.54.63.8,1s.52.64.77,1,.5.66.75,1,.49.67.72,1l.7,1c.23.35.46.69.68,1.05s.43.7.64,1.05.42.72.63,1.08.4.72.59,1.09.39.73.57,1.1.37.74.55,1.12.35.75.51,1.12.33.76.49,1.15.31.76.46,1.15.3.77.44,1.16.27.78.4,1.18.25.78.38,1.18.23.79.34,1.19.22.8.32,1.2.2.8.29,1.21.18.81.26,1.21.16.81.23,1.22.14.82.2,1.23.12.82.17,1.23.1.82.14,1.23c.09.9.16,1.79.21,2.69s.07,1.8.06,2.7,0,1.8-.07,2.7-.12,1.8-.22,2.69-.22,1.79-.36,2.68-.31,1.78-.5,2.66-.4,1.75-.64,2.62-.49,1.73-.77,2.59a10.64,10.64,0,0,1-1.22,3.14c-.28.3-2-1.18-2.43-1.44a11.26,11.26,0,0,0-6.47-1.43h-.16L322,47.8c1-2.2,3-5,3.66-7.12a2.33,2.33,0,0,0-.09-1.9c-.58-1-7.84-5.28-9.13-5.68a2.7,2.7,0,0,0-1.86,1.12,2,2,0,0,0-.31,1.61c.46,1.63,4.94,3.9,6.49,4.81a38.08,38.08,0,0,0-3.36,6.73c.68,3.36,1.76,6.72,2.65,10l5.16,19.25a13,13,0,0,0-4.9,4.45c-2.4,3.9-1.26,7.49-.16,11.57.67,2.47,1.39,4.94,2,7.43l-.07.06a37.19,37.19,0,0,1-6.09,4c-9.53,5.28-19.43,7-30.23,6.2a53.14,53.14,0,0,1-19.35-6c-1.23-.67-5.77-3.26-6.34-4.23-.21-.36,2.89-10.93,3.06-12.76a10.16,10.16,0,0,0,0-1.91,10,10,0,0,0-.37-1.87,11.5,11.5,0,0,0-6-6.78c1.41-4.31,2.17-8.84,3.59-13.15,1.71-1.42,6.55-2.83,7.27-4.77.63-1.69-2.43-5.18-3.18-6.78l-.06-.13.24-.14c1.27-.76,6-3.55,6.31-4.9.32-1.67-3.33-5.18-4.23-6.66l-.06-.1c.4-1.5,1.65-4.53.79-6a2.18,2.18,0,0,0-1.41-.93,2,2,0,0,0-1.51.31c-1.3.89-2,4.68-2.34,6.25a3.79,3.79,0,0,0-.08,1.46c.26,1.24,2.49,3.39,3.28,4.56l.07.11c-1.36,1-5.91,3.32-6.22,4.86s2.43,5.23,3.24,6.54c-1.38.7-2.78,1.38-4.13,2.12a4.32,4.32,0,0,0-1.69,1.35,21.82,21.82,0,0,0-1.44,4.82c-.89,3.32-1.72,6.66-2.7,10A11.3,11.3,0,0,0,245.86,77a21.64,21.64,0,0,1-2.38,1.56,1,1,0,0,1-.13-.09,6.62,6.62,0,0,1-.81-2.06,52.59,52.59,0,0,1-2.87-14.62c0-.43,0-.85,0-1.28s0-.85,0-1.28,0-.85,0-1.28,0-.85,0-1.28.05-.85.08-1.28.07-.85.11-1.28.09-.84.14-1.27.11-.84.18-1.27.13-.84.2-1.26l.24-1.26c.08-.42.17-.83.27-1.25s.19-.83.3-1.24.21-.83.33-1.24l.36-1.23c.13-.41.26-.81.4-1.22s.27-.81.42-1.21.3-.8.45-1.19l.48-1.19c.17-.39.34-.79.52-1.17s.35-.78.54-1.16.37-.77.57-1.15.39-.76.6-1.13.41-.75.63-1.12.43-.74.65-1.1.45-.73.68-1.08.47-.72.71-1.07l.74-1.05c.25-.34.5-.69.76-1l.79-1q.39-.49.81-1l.83-1,.86-.95c.29-.31.58-.61.88-.91s.59-.61.89-.9.61-.59.92-.87l.94-.85,1-.83,1-.8c.33-.27.66-.53,1-.78s.67-.51,1-.76.68-.49,1-.72.7-.48,1.06-.71.71-.45,1.07-.67.72-.44,1.09-.65l1.1-.62,1.12-.6,1.13-.56c.38-.19.76-.37,1.15-.54s.77-.35,1.16-.51.78-.33,1.17-.48.79-.31,1.18-.45.8-.29,1.2-.42l1.2-.4,1.22-.36c.4-.11.81-.23,1.22-.33s.82-.21,1.23-.3.82-.19,1.24-.27.83-.17,1.24-.24.83-.15,1.25-.21l1.25-.18q.63-.09,1.26-.15l1.26-.12L288,8Zm.18,27.24a14.11,14.11,0,0,0-9.63,5.42c-.14.18-.28.37-.41.56s-.26.39-.38.59-.24.4-.36.61-.22.41-.32.62-.2.43-.29.64-.18.44-.26.65-.16.45-.23.67-.14.45-.19.67-.12.46-.16.69-.1.46-.13.69-.07.46-.09.7-.05.46-.06.7,0,.46,0,.7,0,.47,0,.7,0,.47,0,.7,0,.47.09.7c.65,4.69,3.11,7.34,6.68,10.12V71c0,2.17-.25,4.67.25,6.79a5.71,5.71,0,0,0,.3,1,6.52,6.52,0,0,0,.43.93,7.91,7.91,0,0,0,.56.86,8.21,8.21,0,0,0,.67.77,7.27,7.27,0,0,0,5.28,2,11.51,11.51,0,0,0,1.18-.13,7.39,7.39,0,0,0,4.78-3.48,7.5,7.5,0,0,0,.89-2.64,31.77,31.77,0,0,0,.13-4.88c0-3.61-.15-7.27,0-10.87,3.72-2.92,6.12-5.64,6.69-10.53,0-.23,0-.47.07-.7l0-.69c0-.23,0-.47,0-.7s0-.46,0-.69,0-.46-.07-.69-.07-.46-.11-.69-.09-.46-.15-.68-.11-.45-.17-.68l-.21-.66c-.08-.22-.16-.44-.25-.65s-.17-.43-.27-.64-.2-.42-.31-.63-.22-.4-.33-.6-.24-.4-.37-.6l-.4-.57c-.13-.19-.27-.37-.42-.55s-.29-.36-.44-.53-.31-.34-.47-.5-.32-.33-.49-.49l-.52-.45c-.17-.15-.35-.29-.54-.43s-.37-.27-.56-.4l-.57-.38-.6-.34-.61-.32-.63-.28-.64-.26-.65-.22-.66-.19-.68-.15c-.22,0-.45-.09-.67-.12l-.69-.09A14,14,0,0,0,289.45,35.21Z"/><path class="cls-1" d="M290.34,39.58a8.34,8.34,0,0,1,1.58,0,8,8,0,0,1,1.54.28l.46.13.45.15.44.18.44.2.42.22c.14.08.28.16.41.25s.27.17.4.26.26.18.38.28l.37.3.36.32.34.34c.11.11.21.23.32.35l.3.37c.1.12.19.25.29.38l.26.4c.08.13.17.27.24.41s.16.28.23.43l.21.43.18.45c.06.15.12.3.17.45l.14.47c0,.15.08.31.11.47s.07.31.1.47,0,.32.07.48,0,.32.05.48l0,.48v.49c0,.16,0,.32,0,.48s0,.32-.05.48,0,.32-.07.48l-.09.47c0,.16-.07.32-.11.47-.94,3.43-3.65,5-6.54,6.69.15,2.24.25,17.55-.23,18.69a2.92,2.92,0,0,1-1.75,1.44,3.61,3.61,0,0,1-.86.1,2.77,2.77,0,0,1-2-.85,3.07,3.07,0,0,1-.71-1.7,43,43,0,0,1-.09-6.22c0-3.83-.06-7.68.06-11.52a19.47,19.47,0,0,1-3.54-2.18,8.8,8.8,0,0,1-3.29-6.1c0-.16,0-.32,0-.48s0-.33,0-.49,0-.32,0-.49,0-.32,0-.48l.06-.49c0-.16.05-.32.09-.48s.07-.32.11-.47.08-.32.13-.47l.15-.46.18-.46c.06-.15.13-.3.2-.44s.15-.29.22-.44.16-.28.25-.42.17-.28.26-.41.19-.27.28-.4l.31-.38A9.57,9.57,0,0,1,290.34,39.58Z"/></g></g></svg>