<?xml version="1.0" encoding="utf-8"?>
<!-- Generator: Adobe Illustrator 25.2.3, SVG Export Plug-In . SVG Version: 6.00 Build 0)  -->
<svg version="1.1" id="Слой_1" opacity="0.6" xmlns="http://www.w3.org/2000/svg" xmlns:xlink="http://www.w3.org/1999/xlink"
	 x="0px" y="0px" viewBox="0 0 118 133.5" style="enable-background:new 0 0 118 133.5;" xml:space="preserve">
<style type="text/css">
	.st0{fill:#FFFFFF;}
</style>
<g id="Слой_7">
	<g id="Icon">
		<path class="st0" d="M97.8,72c1.6-0.2,3.2,0.2,4.6,1.1c0.8,0.5,1.5,1.3,1.9,2.1c0.9,2.7,1.7,5.4,2.3,8.1l4,15.1l4.8,17.8
			c0.9,3.2,2,6.4,2.5,9.7c0.4,1.5,0.1,3.2-0.9,4.5c-1.3,1.7-3.2,2.8-5.3,3c-1.7,0.2-3.5-0.3-4.9-1.3c-0.9-0.7-1.6-1.6-1.9-2.6
			c-1.1-3-1.8-6.4-2.6-9.5l-5-18.7l-3.9-14.6c-0.8-2.5-1.5-5-2-7.5c-0.2-1.5,0.2-3.1,1.2-4.3C93.8,73.2,95.7,72.2,97.8,72z"/>
		<path class="st0" d="M19.1,72c1.7-0.1,3.3,0.3,4.7,1.2c1.5,0.9,2.5,2.4,2.9,4.1c0.1,0.7,0.1,1.5,0,2.2c-0.5,2.6-1.4,5.2-2,7.8
			l-3.8,14.3L16,119.5c-0.8,3.1-1.5,6.1-2.5,9.2c-0.2,0.9-0.6,1.7-1.1,2.4c-1.2,1.4-2.8,2.2-4.6,2.3c-1.6,0.1-3.2-0.2-4.6-1
			c-1.6-1-2.8-2.5-3.2-4.3c0-0.1-0.1-0.2-0.1-0.3c0-0.9,0.1-1.9,0.4-2.8c0.7-3,1.6-6,2.4-9l4.6-17.3l3.8-14.3
			c0.8-2.8,1.4-5.6,2.3-8.4c0.1-0.5,0.3-1,0.6-1.4C15.4,73.1,17.2,72.1,19.1,72z"/>
		<path class="st0" d="M57.4,0h1.2c0.4,0,0.8,0,1.2,0H61h1l1.2,0.1l1.2,0.1l1.2,0.1l1.1,0.2c0.4,0.1,0.8,0.1,1.1,0.2L69,0.9l1.1,0.2
			l1.1,0.3l1.1,0.3L73.5,2l1.1,0.3l1.1,0.4l1.1,0.4l1.1,0.4L79,3.9l1.1,0.5l1,0.5l1,0.5c0.4,0.2,0.7,0.4,1,0.5s0.7,0.4,1,0.6
			s0.7,0.4,1,0.6l1,0.6l1,0.6l1,0.6l1,0.7l0.9,0.7l1,0.7c0.3,0.2,0.6,0.5,0.9,0.7l1,0.8l0.9,0.8l0.9,0.9l0.9,0.9
			c0.3,0.3,0.6,0.6,0.9,0.9l0.9,0.9l0.8,0.9c0.3,0.3,0.5,0.6,0.8,1s0.5,0.6,0.8,1s0.5,0.7,0.8,1s0.5,0.7,0.7,1l0.7,1
			c0.2,0.4,0.5,0.7,0.7,1c0.2,0.4,0.4,0.7,0.6,1s0.4,0.7,0.6,1.1s0.4,0.7,0.6,1.1s0.4,0.7,0.6,1.1s0.4,0.7,0.5,1.1s0.4,0.8,0.5,1.1
			s0.3,0.8,0.5,1.2s0.3,0.8,0.5,1.2s0.3,0.8,0.4,1.2s0.3,0.8,0.4,1.2s0.2,0.8,0.4,1.2s0.2,0.8,0.3,1.2s0.2,0.8,0.3,1.2
			s0.2,0.8,0.3,1.2s0.2,0.8,0.3,1.2s0.2,0.8,0.2,1.2s0.1,0.8,0.2,1.2s0.1,0.8,0.2,1.2s0.1,0.8,0.1,1.2c0.1,0.9,0.2,1.8,0.2,2.7
			s0.1,1.8,0.1,2.7s0,1.8-0.1,2.7s-0.1,1.8-0.2,2.7s-0.2,1.8-0.4,2.7s-0.3,1.8-0.5,2.7s-0.4,1.8-0.6,2.6c-0.2,0.8-0.5,1.7-0.8,2.6
			c-0.2,1.1-0.6,2.2-1.2,3.1c-0.3,0.3-2-1.2-2.4-1.4c-2-1.1-4.2-1.6-6.5-1.4h-0.2l-7.4-27.8c1-2.2,3-5,3.7-7.1
			c0.2-0.6,0.2-1.3-0.1-1.9c-0.6-1-7.8-5.3-9.1-5.7c-0.7,0.1-1.4,0.5-1.9,1.1c-0.3,0.5-0.4,1.1-0.3,1.6c0.5,1.6,4.9,3.9,6.5,4.8
			c-1.3,2.1-2.5,4.4-3.4,6.7c0.7,3.4,1.8,6.7,2.6,10l5.2,19.2c-2,1-3.7,2.6-4.9,4.4c-2.4,3.9-1.3,7.5-0.2,11.6
			c0.7,2.5,1.4,4.9,2,7.4L90.2,92c-1.9,1.5-3.9,2.9-6.1,4c-9.5,5.3-19.4,7-30.2,6.2c-6.8-0.7-13.3-2.8-19.4-6
			c-1.2-0.7-5.8-3.3-6.3-4.2c-0.2-0.4,2.9-10.9,3.1-12.8c0.1-0.6,0.1-1.3,0-1.9s-0.2-1.3-0.4-1.9c-1-3-3.2-5.4-6-6.8
			c1.4-4.3,2.2-8.8,3.6-13.2c1.7-1.4,6.5-2.8,7.3-4.8c0.6-1.7-2.4-5.2-3.2-6.8l-0.1-0.1l0.2-0.1c1.3-0.8,6-3.5,6.3-4.9
			c0.3-1.7-3.3-5.2-4.2-6.7l-0.1-0.1c0.4-1.5,1.6-4.5,0.8-6c-0.3-0.5-0.8-0.8-1.4-0.9c-0.5-0.1-1.1,0-1.5,0.3
			c-1.3,0.9-2,4.7-2.3,6.2c-0.1,0.5-0.1,1-0.1,1.5c0.3,1.2,2.5,3.4,3.3,4.6l0.1,0.1c-1.4,1-5.9,3.3-6.2,4.9s2.4,5.2,3.2,6.5
			c-1.4,0.7-2.8,1.4-4.1,2.1c-0.7,0.3-1.3,0.8-1.7,1.3c-0.7,1.5-1.1,3.2-1.4,4.8c-0.9,3.3-1.7,6.7-2.7,10C18.3,67.4,16,67.9,14,69
			c-0.8,0.6-1.6,1.1-2.4,1.6l-0.1-0.1c-0.4-0.6-0.7-1.3-0.8-2.1C9,63.7,8,58.8,7.8,53.8c0-0.4,0-0.8,0-1.3s0-0.8,0-1.3s0-0.8,0-1.3
			s0-0.8,0-1.3s0.1-0.8,0.1-1.3S8,46.5,8,46c0-0.4,0.1-0.8,0.1-1.3s0.1-0.8,0.2-1.3s0.1-0.8,0.2-1.3l0.2-1.3C8.8,40.4,8.9,40,9,39.6
			s0.2-0.8,0.3-1.2s0.2-0.8,0.3-1.2L10,36c0.1-0.4,0.3-0.8,0.4-1.2s0.3-0.8,0.4-1.2s0.3-0.8,0.4-1.2l0.5-1.2
			c0.2-0.4,0.3-0.8,0.5-1.2s0.4-0.8,0.5-1.2s0.4-0.8,0.6-1.2s0.4-0.8,0.6-1.1s0.4-0.8,0.6-1.1s0.4-0.7,0.6-1.1s0.4-0.7,0.7-1.1
			c0.2-0.4,0.5-0.7,0.7-1.1l0.7-1c0.2-0.3,0.5-0.7,0.8-1l0.8-1c0.3-0.3,0.5-0.7,0.8-1l0.8-1l0.9-1c0.3-0.3,0.6-0.6,0.9-0.9
			s0.6-0.6,0.9-0.9s0.6-0.6,0.9-0.9l0.9-0.9l1-0.8l1-0.8c0.3-0.3,0.7-0.5,1-0.8s0.7-0.5,1-0.8s0.7-0.5,1-0.7s0.7-0.5,1.1-0.7
			s0.7-0.4,1.1-0.7s0.7-0.4,1.1-0.6L34.3,6l1.1-0.6l1.1-0.6c0.4-0.2,0.8-0.4,1.1-0.5s0.8-0.4,1.2-0.5s0.8-0.3,1.2-0.5
			s0.8-0.3,1.2-0.4s0.8-0.3,1.2-0.4l1.2-0.4l1.2-0.4c0.4-0.1,0.8-0.2,1.2-0.3s0.8-0.2,1.2-0.3s0.8-0.2,1.2-0.3s0.8-0.2,1.2-0.2
			s0.8-0.1,1.2-0.2L52,0.2c0.4-0.1,0.8-0.1,1.3-0.1L54.6,0l1.5,0H57.4z M57.6,27.2c-3.8,0.4-7.3,2.4-9.6,5.4
			c-0.1,0.2-0.3,0.4-0.4,0.6s-0.3,0.4-0.4,0.6s-0.2,0.4-0.4,0.6s-0.2,0.4-0.3,0.6s-0.2,0.4-0.3,0.6S46,36,45.9,36.3
			s-0.2,0.5-0.2,0.7s-0.1,0.5-0.2,0.7s-0.1,0.5-0.2,0.7s-0.1,0.5-0.1,0.7s-0.1,0.5-0.1,0.7s0,0.5-0.1,0.7s0,0.5,0,0.7s0,0.5,0,0.7
			s0,0.5,0,0.7s0,0.5,0.1,0.7c0.6,4.7,3.1,7.3,6.7,10.1V63c0,2.2-0.2,4.7,0.2,6.8c0.1,0.3,0.2,0.7,0.3,1s0.3,0.6,0.4,0.9
			c0.2,0.3,0.4,0.6,0.6,0.9c0.2,0.3,0.4,0.5,0.7,0.8c1.4,1.4,3.3,2.1,5.3,2c0.4,0,0.8-0.1,1.2-0.1c2-0.4,3.7-1.7,4.8-3.5
			c0.5-0.8,0.8-1.7,0.9-2.6c0.2-1.6,0.2-3.3,0.1-4.9c0-3.6-0.1-7.3,0-10.9c3.7-2.9,6.1-5.6,6.7-10.5c0-0.2,0-0.5,0.1-0.7v-0.7
			c0-0.2,0-0.5,0-0.7s0-0.5,0-0.7s0-0.5-0.1-0.7s-0.1-0.5-0.1-0.7s-0.1-0.5-0.1-0.7s-0.1-0.5-0.2-0.7l-0.2-0.7
			c-0.1-0.2-0.2-0.4-0.2-0.7s-0.2-0.4-0.3-0.6s-0.2-0.4-0.3-0.6s-0.2-0.4-0.3-0.6s-0.2-0.4-0.4-0.6L70.4,33
			c-0.1-0.2-0.3-0.4-0.4-0.5s-0.3-0.4-0.4-0.5s-0.3-0.3-0.5-0.5s-0.3-0.3-0.5-0.5l-0.5-0.5c-0.2-0.2-0.4-0.3-0.5-0.4
			s-0.4-0.3-0.6-0.4l-0.6-0.4L65.8,29l-0.6-0.3l-0.6-0.3L63.9,28l-0.6-0.2l-0.7-0.2l-0.7-0.2c-0.2,0-0.5-0.1-0.7-0.1l-0.7-0.1
			C59.6,27.1,58.6,27.1,57.6,27.2L57.6,27.2z"/>
		<path class="st0" d="M58.5,31.6c0.5,0,1.1,0,1.6,0s1,0.1,1.5,0.3L62,32l0.5,0.2l0.4,0.2l0.4,0.2l0.4,0.2c0.1,0.1,0.3,0.2,0.4,0.2
			s0.3,0.2,0.4,0.3s0.3,0.2,0.4,0.3l0.4,0.3l0.4,0.3l0.3,0.3c0.1,0.1,0.2,0.2,0.3,0.3l0.3,0.4c0.1,0.1,0.2,0.2,0.3,0.4l0.3,0.4
			c0.1,0.1,0.2,0.3,0.2,0.4s0.2,0.3,0.2,0.4l0.2,0.4l0.2,0.5c0.1,0.2,0.1,0.3,0.2,0.5l0.1,0.5c0,0.2,0.1,0.3,0.1,0.5
			s0.1,0.3,0.1,0.5s0,0.3,0.1,0.5s0,0.3,0,0.5V41v0.5c0,0.2,0,0.3,0,0.5s0,0.3,0,0.5s0,0.3-0.1,0.5l-0.1,0.5c0,0.2-0.1,0.3-0.1,0.5
			c-0.9,3.4-3.6,5-6.5,6.7c0.1,2.2,0.2,17.6-0.2,18.7c-0.4,0.7-1,1.2-1.8,1.4c-0.3,0.1-0.6,0.1-0.9,0.1c-0.8,0-1.5-0.3-2-0.8
			c-0.4-0.5-0.7-1.1-0.7-1.7c-0.2-2.1-0.2-4.1-0.1-6.2c0-3.8-0.1-7.7,0.1-11.5c-1.3-0.6-2.4-1.3-3.5-2.2c-1.9-1.5-3.1-3.7-3.3-6.1
			c0-0.2,0-0.3,0-0.5s0-0.3,0-0.5s0-0.3,0-0.5s0-0.3,0-0.5l0.1-0.5c0-0.2,0-0.3,0.1-0.5s0.1-0.3,0.1-0.5s0.1-0.3,0.1-0.5l0.1-0.5
			l0.2-0.5c0.1-0.2,0.1-0.3,0.2-0.4s0.1-0.3,0.2-0.4s0.2-0.3,0.2-0.4s0.2-0.3,0.3-0.4s0.2-0.3,0.3-0.4l0.3-0.4
			C53.4,33,55.8,31.7,58.5,31.6z"/>
	</g>
</g>
</svg>
