<?xml version="1.0" encoding="utf-8"?>
<svg version="1.1" id="Слой_1" xmlns="http://www.w3.org/2000/svg" xmlns:xlink="http://www.w3.org/1999/xlink" x="0px" y="0px"
	 viewBox="0 0 266 266" style="enable-background:new 0 0 266 266;" xml:space="preserve">
<path d="M173.9-24.5l0,130.2c-9,2.3-18.3,7.2-23.4,16.3c-1.4,2.5-2.2,4.9-2.8,7.7l-38.5,33.2l-13.4-17c-2.3-3-4.8-5.9-7-9
	c-0.9-1.3-1.3-2.9-2-4.4c-1.5-3.3-3.7-6.2-6.1-8.7c8.3-7.5,13.2-17.3,14.4-29.3c0.4-3.7,0.3-7.4,0-11.1c4.8-0.3,9.6-0.5,14.3-0.9
	l-0.4-9.5c-4.7,0.3-9.4,0.7-14,0.9c-1.4-9.2-5.1-18-12-23.5c-7.2-5.8-16.3-6.3-24.8-4.6c-7.6,1.6-14,6-18.4,13.3
	c-5.5,9-6.7,18.8-6.6,29.5c0.9-0.1,1.8-0.2,2.7-0.2c-0.3,9.1,1.2,17.1,5.1,25c-7.3,0.5-13.2,4.7-18,10.8
	c-4.8,6.1-8.8,14.3-10.4,22.4c-0.8,4.5-0.6,9.5-0.8,14.1l-0.8,24.4L8,276c2.8,0.1,5.5,0.2,8.3,0.3c0.5-8.8,0.5-17.6,0.9-26.5
	c5.1-0.8,10.1-1.8,15.2-2.8c4-0.8,8.6-1.1,12.4-3c2.1-1,3.8-2.6,5.4-4.3c6.9,1.9,13.8,0.9,20.7-0.2l6.6-0.7
	c-0.5,12.3-1.1,24.7-1.8,37l8.4,0.6c0.5-12.8,1.2-25.7,1.9-38.5l24.6-2.7c4.4-0.5,8.7-1.1,13.1-1.4c3,1.7,5.8,2.8,9,3.5
	c-3.2,9.1-6.2,18.3-9.6,27.3l7.7,3.5l10.8-30.5c7.6-0.9,15.3-3.7,20.3-10.6c2.6-3.6,4.1-8.3,3.6-13c-0.6-5.6-3.9-10.4-7.7-13.8
	c-6.7-6-15.1-8.6-23.5-8.9l25.3-24.8c2.3-2.3,8.8-9.2,11-10.6c0.9-0.6,2.4-0.7,3.4-1v17.7h-8.3l0,9.4l8.3,0l0,9.3h-8.3v9.4h8.3
	l0,75.2h8.4V-24.5L173.9-24.5z M79.1,112.6c-3.6,4.4-8.7,7.5-14.1,7.7c-5.3,0.2-9.8-2.4-13.6-6.5l-0.2-0.3c-6-7.3-7.6-16.2-7.2-25.9
	c13.8-1,27.6-2.4,41.4-3.6c0.5,0,0.6-0.1,1,0.1c0.4,0.9,0.5,1.8,0.5,2.8C87.1,96.3,84.8,105.7,79.1,112.6z M47.5,62.8
	c4.1-5.7,9.6-7.5,15.8-8.3c4.5-0.7,9.9,0.3,13.9,3c5.4,3.8,7.8,10.3,9.2,17c-7.6,0.5-15.2,1.4-22.8,2c-7.2,0.9-14.6,1.4-21.8,1.9
	C42.7,72.8,44.3,67.3,47.5,62.8z M36.4,236.7c-6.2,0.9-12.8,2.2-19,3.6c0.4-20.7,1.1-41.4,1.9-62.1c1.1,1.9,2.4,7.7,3.1,10l7.6,25.9
	c0.9,3,2.3,9.1,3.6,11.6c2,3.9,5,6.9,8.1,9.6C40,236.1,38.2,236.4,36.4,236.7z M115.2,225.2c-4.9,0.4-9.8,1-14.7,1.6l-26.2,2.9
	c-5.5,0.6-11.2,1.6-16.7,1.8c-5.2,0.1-10.4-2.4-14.1-6.5c-1.2-1.3-2.3-2.8-3-4.6c-0.8-2.1-1.3-4.3-1.9-6.5l-3.5-11.8l-12.2-41.7
	c-0.5-1.6-2.8-8.1-2.8-9.3c0-0.1,0-0.2,0-0.3c0.2-6.1,3.7-13.2,6.9-18c3.2-4.8,7.5-9,13-9.8c2.4-0.2,6.1,0,8.3,0.9
	c1.9,0.7,3.5,2.2,5.3,3.2c6,3.2,12.1,3.3,18.5,1.4c2,1.5,3.9,3.4,5.3,5.6c4.1,6.1,4.7,12.9,3.8,20.2l-22-0.3c-1.3-2-2.7-3.8-4.4-5.4
	c-6.3-5.8-12.6-5.9-20.2-4.9c0.3,3.1,0.6,6.3,0.8,9.4c4.3-0.6,8.3-1.2,12.2,1.4c0.3,0.2,0.6,0.4,0.9,0.6c0.3,0.2,0.5,0.4,0.8,0.7
	c0.3,0.2,0.5,0.5,0.8,0.7c0.2,0.3,0.5,0.5,0.7,0.8c0.2,0.3,0.5,0.5,0.7,0.8c0.2,0.3,0.4,0.6,0.6,0.9c0.2,0.3,0.4,0.6,0.6,0.9
	c0.2,0.3,0.3,0.7,0.5,1c1.8,3.8,3.1,10.9,4.2,15.2l7.4,29.1c12.4-0.3,24.8-1,37.1-1.5c4.4-0.3,8.8-0.4,13.3-0.5
	c-0.5,1.2-1,2.4-1.3,3.7C112.2,213.2,112.5,219.3,115.2,225.2z M81.2,163.8l-1.5,30.6l-0.2,0.6c-0.8,0.6-7,0.5-8.4,0.6
	c-1.8-7.2-3.6-14.4-5.4-21.5c-0.9-3.5-1.9-7-2.6-10.5C69.1,163.6,75.1,163.5,81.2,163.8z M147.4,204.2c3.5,1.8,8,5.1,9.4,9.5
	c0.6,1.9,0.3,3.8-0.5,5.6c-2.1,4.5-6.8,6.7-10.9,8c-0.8,0.2-1.5,0.3-2.3,0.5c-5.8,1.1-12.6,0.2-17.5-3.8c-2.2-1.8-4-4.4-4.3-7.5
	c-0.4-3.5,0.4-7.8,2.4-10.7c2.2-3.2,5.4-4.4,8.9-4.9C137.5,200.3,142.9,201.9,147.4,204.2z M119.5,193.5L88,194.8l0.5-10
	c0.2-7.1,0.7-14.2,1.1-21.3c0.2-3.5,0.5-7.1,0.3-10.7c2.2,2.1,4.2,5.1,6.1,7.6l12.1,15.3c4.4-4,9-7.8,13.5-11.7l26.7-23.1
	c0.6,0.6,1,2.1,1.4,3c2.2,4.9,5.2,8.4,9.5,10.8L119.5,193.5z M173.9,144.9c-2.6,1.2-5.3,2.1-8.1,1.9c-2.6-0.1-4.7-1.1-6.5-3.3
	c-1.4-1.9-2.6-4.1-3.3-6.5c-0.8-3.1-0.4-6.2,1-9c3.4-6.8,10.3-10.5,16.7-12.6l0.1,0.1C174.2,117.2,173.9,141,173.9,144.9z
	 M261,167.2c0-0.2,0-0.5-0.1-0.7c0-0.2,0-0.5-0.1-0.7c0-0.2-0.1-0.5-0.1-0.7c0-0.2-0.1-0.5-0.1-0.7c0-0.2-0.1-0.5-0.2-0.7
	c-0.1-0.2-0.1-0.4-0.2-0.7c-0.1-0.2-0.1-0.4-0.2-0.6c-0.1-0.2-0.2-0.4-0.3-0.6c-0.1-0.2-0.2-0.4-0.3-0.6c-0.1-0.2-0.2-0.4-0.3-0.6
	s-0.2-0.4-0.3-0.6c-0.1-0.2-0.2-0.4-0.4-0.6c-0.1-0.2-0.3-0.4-0.4-0.5s-0.3-0.3-0.4-0.5c-0.1-0.2-0.3-0.3-0.4-0.5
	c-1.5-1.7-3.5-3-5.6-3.5c-3.3-0.9-7.2-0.4-10.7-0.4l-17.2,0v-18.8l-33.2,0v79.9h33.2l0-32.9h18.8c5.5,0,10.7,0.7,15-4.2
	c0.1-0.2,0.3-0.3,0.4-0.5c0.1-0.2,0.3-0.3,0.4-0.5c0.1-0.2,0.2-0.4,0.4-0.6c0.1-0.2,0.2-0.4,0.3-0.6c0.1-0.2,0.2-0.4,0.3-0.6
	c0.1-0.2,0.2-0.4,0.3-0.6c0.1-0.2,0.2-0.4,0.3-0.6c0.1-0.2,0.2-0.4,0.2-0.6c0.1-0.2,0.1-0.4,0.2-0.6c0.1-0.2,0.1-0.4,0.2-0.7
	c0.1-0.2,0.1-0.5,0.2-0.7c0-0.2,0.1-0.5,0.1-0.7c0-0.2,0.1-0.5,0.1-0.7c0-0.2,0-0.5,0.1-0.7c0-0.2,0-0.5,0-0.7c0-0.2,0-0.5,0-0.7
	C261,167.7,261,167.4,261,167.2z M207.1,169.2c0,0.2,0,0.5,0.1,0.7c0,0.2,0.1,0.5,0.1,0.7c0,0.2,0.1,0.5,0.1,0.7
	c0.1,0.2,0.1,0.5,0.2,0.7c0,0.2,0.1,0.4,0.2,0.7c0.1,0.2,0.1,0.4,0.2,0.7c1.4,4,4,6.4,7.4,8.1l0,14.7v9.5h-16.5v-61l16.5,0l0,10.1
	c-3.2,1.6-5.8,3.9-7.2,7.7c-0.1,0.2-0.2,0.4-0.2,0.6c-0.1,0.2-0.1,0.4-0.2,0.7c-0.1,0.2-0.1,0.4-0.2,0.7c-0.1,0.2-0.1,0.5-0.2,0.7
	c0,0.2-0.1,0.5-0.1,0.7c0,0.2-0.1,0.5-0.1,0.7c0,0.2,0,0.5-0.1,0.7c0,0.2,0,0.5,0,0.7c0,0.2,0,0.5,0,0.7
	C207.1,168.8,207.1,169,207.1,169.2z M252.2,170.2c-0.6,1.3-1.7,2-2.9,2.5c-3.5,0.2-29.9,0.3-31.3-0.3c-1-0.5-1.9-1.6-2.3-2.8
	c-0.4-1.2-0.4-2.4,0.1-3.5c0.7-1.5,1.7-2.1,3-2.6c4.4-0.3,8.9-0.1,13.3-0.1c5.2,0,10.5-0.2,15.7,0c0.8,0,1.7,0.1,2.5,0.4
	c1,0.5,1.8,1.5,2.2,2.7C252.8,167.7,252.7,169.1,252.2,170.2z"/>
<path d="M41.7,235.3c-1.7,0.8-3.4,1-5.2,1.4c-6.2,0.9-12.8,2.2-19,3.6c0.4-20.7,1.1-41.4,1.9-62.1c1.1,1.9,2.4,7.7,3.1,10l7.6,25.9
	c0.9,3,2.3,9.1,3.6,11.6C35.5,229.7,38.5,232.7,41.7,235.3z"/>
<path d="M81.2,163.8l-1.5,30.6l-0.2,0.6c-0.8,0.6-7,0.5-8.4,0.6c-1.8-7.2-3.6-14.4-5.4-21.5c-0.9-3.5-1.9-7-2.6-10.5
	C69.1,163.6,75.1,163.5,81.2,163.8z"/>
<path d="M86.4,74.5c-7.6,0.5-15.2,1.4-22.8,2c-7.2,0.9-14.6,1.4-21.8,1.9c0.9-5.6,2.5-11.1,5.8-15.6c4.1-5.7,9.6-7.5,15.8-8.3
	c4.5-0.7,9.9,0.3,13.9,3C82.6,61.3,85,67.9,86.4,74.5z"/>
<path d="M165.7,30.1c0-0.2,0-0.5,0-0.7c0-0.2,0-0.5,0-0.7c0-0.2,0-0.5,0-0.7c0-0.2,0-0.5-0.1-0.7c0-0.2-0.1-0.5-0.1-0.7
	c0-0.2-0.1-0.5-0.1-0.7c0-0.2-0.1-0.4-0.1-0.7c0-0.2-0.1-0.5-0.1-0.7c0-0.2-0.1-0.5-0.1-0.7c0-0.2-0.1-0.5-0.2-0.7
	c0-0.2-0.1-0.5-0.2-0.7c-0.1-0.2-0.1-0.4-0.2-0.7c-0.1-0.2-0.1-0.4-0.2-0.7c-0.1-0.2-0.1-0.4-0.2-0.7c-0.1-0.2-0.2-0.4-0.2-0.6
	c-0.1-0.2-0.2-0.4-0.2-0.6c-0.1-0.2-0.2-0.4-0.2-0.6c-0.1-0.2-0.2-0.4-0.3-0.6c-0.1-0.2-0.2-0.4-0.3-0.6c-0.1-0.2-0.2-0.4-0.3-0.6
	c-0.1-0.2-0.2-0.4-0.3-0.6c-0.1-0.2-0.2-0.4-0.3-0.6c-0.1-0.2-0.2-0.4-0.3-0.6s-0.2-0.4-0.3-0.6l-0.4-0.6c-0.1-0.2-0.2-0.4-0.4-0.5
	c-0.1-0.2-0.2-0.4-0.4-0.5c-0.1-0.2-0.3-0.4-0.4-0.5c-0.1-0.2-0.3-0.3-0.4-0.5c-0.1-0.2-0.3-0.4-0.4-0.5c-0.1-0.2-0.3-0.3-0.4-0.5
	c-0.1-0.2-0.3-0.3-0.4-0.5c-0.2-0.2-0.3-0.3-0.5-0.5c-0.1-0.1-0.3-0.3-0.5-0.5c-0.1-0.2-0.3-0.3-0.5-0.5c-0.2-0.2-0.3-0.3-0.5-0.4
	c-0.2-0.2-0.3-0.3-0.5-0.4c-0.2-0.1-0.3-0.3-0.5-0.4c-0.2-0.1-0.3-0.3-0.5-0.4s-0.3-0.2-0.5-0.4c-0.2-0.1-0.3-0.2-0.5-0.4
	c-0.2-0.1-0.4-0.2-0.5-0.3c-0.2-0.1-0.3-0.2-0.5-0.3s-0.4-0.2-0.5-0.3c-0.2-0.1-0.4-0.2-0.5-0.3c-0.2-0.1-0.4-0.2-0.6-0.3
	c-0.2-0.1-0.4-0.2-0.6-0.3c-0.2-0.1-0.4-0.2-0.6-0.3c-0.2-0.1-0.4-0.2-0.6-0.2c-0.2-0.1-0.4-0.2-0.6-0.2c-0.2-0.1-0.4-0.1-0.6-0.2
	c-0.2-0.1-0.4-0.1-0.6-0.2c-0.2-0.1-0.4-0.1-0.6-0.2c-0.2,0-0.4-0.1-0.6-0.2c-0.2,0-0.4-0.1-0.6-0.1s-0.4-0.1-0.6-0.1
	c-0.2,0-0.4-0.1-0.6-0.1c-0.2,0-0.4-0.1-0.6-0.1c-0.2,0-0.4,0-0.6-0.1c-0.2,0-0.4,0-0.6-0.1c-0.2,0-0.4,0-0.6-0.1
	c-0.2,0-0.4,0-0.6,0c-0.2,0-0.4,0-0.6,0c-0.5,0-1,0-1.5,0c-7,0.6-13.2,3.9-17.7,10l-0.4,0.5c-0.1,0.2-0.3,0.4-0.4,0.6
	c-0.1,0.2-0.2,0.4-0.4,0.6s-0.2,0.4-0.4,0.6c-0.1,0.2-0.2,0.4-0.3,0.6c-0.1,0.2-0.2,0.4-0.3,0.6c-0.1,0.2-0.2,0.4-0.3,0.6
	c-0.1,0.2-0.2,0.4-0.3,0.6c-0.1,0.2-0.2,0.4-0.3,0.6c-0.1,0.2-0.2,0.4-0.3,0.6c-0.1,0.2-0.2,0.4-0.3,0.6c-0.1,0.2-0.2,0.4-0.2,0.7
	c-0.1,0.2-0.2,0.4-0.2,0.7c-0.1,0.2-0.2,0.4-0.2,0.7c-0.1,0.2-0.1,0.4-0.2,0.7c-0.1,0.2-0.1,0.5-0.2,0.7c-0.1,0.2-0.1,0.5-0.2,0.7
	c0,0.2-0.1,0.5-0.2,0.7c0,0.2-0.1,0.5-0.2,0.7c0,0.2-0.1,0.5-0.1,0.7c0,0.2-0.1,0.5-0.1,0.7c0,0.2-0.1,0.5-0.1,0.7
	c0,0.2-0.1,0.5-0.1,0.7c0,0.2,0,0.5-0.1,0.7c0,0.2,0,0.5,0,0.7c0,0.2,0,0.5,0,0.7c0,0.2,0,0.5,0,0.7c0,0.2,0,0.5,0,0.7
	c0,0.2,0,0.5,0,0.7c0,0.2,0,0.5,0,0.7c0,0.2,0,0.5,0,0.7c0,0.2,0,0.5,0.1,0.7c0,0.2,0,0.5,0.1,0.7c0,0.2,0,0.5,0.1,0.7
	c0,0.2,0.1,0.5,0.1,0.7c0,0.2,0.1,0.4,0.1,0.7c0,0.2,0.1,0.5,0.1,0.7c0,0.2,0.1,0.4,0.1,0.7c0,0.2,0.1,0.4,0.1,0.7
	c0,0.2,0.1,0.4,0.2,0.7c0.1,0.2,0.1,0.4,0.2,0.6c0.1,0.2,0.1,0.4,0.2,0.7c0.1,0.2,0.1,0.4,0.2,0.6c0.1,0.2,0.1,0.4,0.2,0.6
	c0.1,0.2,0.1,0.4,0.2,0.6c0.1,0.2,0.2,0.4,0.2,0.6c0.1,0.2,0.2,0.4,0.3,0.6c0.1,0.2,0.2,0.4,0.3,0.6c0.1,0.2,0.2,0.4,0.3,0.6
	c0.1,0.2,0.2,0.4,0.3,0.6c0.1,0.2,0.2,0.4,0.3,0.6c0.1,0.2,0.2,0.4,0.3,0.6s0.2,0.4,0.3,0.6c0.1,0.2,0.2,0.4,0.3,0.6l0.4,0.5
	c0.1,0.2,0.2,0.4,0.4,0.5c0.1,0.2,0.2,0.3,0.4,0.5c0.1,0.2,0.3,0.3,0.4,0.5c0.1,0.2,0.3,0.3,0.4,0.5c0.1,0.2,0.3,0.3,0.4,0.5
	c0.1,0.2,0.3,0.3,0.4,0.5c0.1,0.2,0.3,0.3,0.4,0.5c0.1,0.2,0.3,0.3,0.5,0.5c0.1,0.1,0.3,0.3,0.5,0.4c0.8,0.7,1.6,1.4,2.5,2.1
	c-0.3,2.6-0.1,4.7,1.4,6.8c0.7,1,1.5,1.9,2.3,2.8c-1.7,2.9-3.8,5.9-3.2,9.6c0.4,2.4,1.7,4,3.2,5.6c-1.1,2-2.4,3.6-2,6.1
	c0.9,5.5,7.6,14.8,10.7,19.3l2.2,3.2l15.6-13.7l-0.1-42.3c5.2-5.7,8.3-12.4,8.4-20.7V30.1z M157.3,30.8c0,0.1,0,0.3,0,0.5
	c0,0.2,0,0.3,0,0.5c0,0.2,0,0.3,0,0.5c0,0.2,0,0.3,0,0.5c0,0.2,0,0.3-0.1,0.5c-0.8,6.2-4,10.1-8.2,13.8c-0.1,14.1,0.1,28.2,0.1,42.3
	c-1.8,1.8-3.8,3.4-5.7,5c-1.9-2.9-3.6-5.8-5.3-8.8l-0.3-0.6c0-1.5,2.8-5.6,3.7-7l-5.2-6.1c1.8-3,3.5-6.1,5.2-9.1l-5.5-6.4l3.9-6
	c-3-1.6-6.1-2.4-8.9-4.6c-0.1-0.1-0.2-0.2-0.3-0.3c-0.1-0.1-0.2-0.2-0.3-0.3c-0.1-0.1-0.2-0.2-0.3-0.3c-0.1-0.1-0.2-0.2-0.3-0.3
	c-0.1-0.1-0.2-0.2-0.3-0.3c-0.1-0.1-0.2-0.2-0.3-0.3c-0.1-0.1-0.2-0.2-0.3-0.3c-0.1-0.1-0.2-0.2-0.3-0.3c-0.1-0.1-0.2-0.2-0.3-0.3
	c-0.1-0.1-0.2-0.2-0.3-0.3c-0.1-0.1-0.2-0.2-0.3-0.3c-0.1-0.1-0.2-0.2-0.2-0.4c-0.1-0.1-0.2-0.2-0.2-0.4c-0.1-0.1-0.1-0.2-0.2-0.4
	c-0.1-0.1-0.2-0.2-0.2-0.4c-0.1-0.1-0.1-0.3-0.2-0.4c-0.1-0.1-0.1-0.2-0.2-0.4c-0.1-0.1-0.1-0.3-0.2-0.4c-0.1-0.1-0.1-0.3-0.2-0.4
	c-0.1-0.1-0.1-0.3-0.2-0.4c-0.1-0.1-0.1-0.3-0.2-0.4c0-0.1-0.1-0.3-0.2-0.4c-0.1-0.1-0.1-0.3-0.2-0.4c0-0.1-0.1-0.3-0.1-0.4
	c0-0.1-0.1-0.3-0.1-0.4c0-0.2-0.1-0.3-0.1-0.4c0-0.1-0.1-0.3-0.1-0.4c0-0.1-0.1-0.3-0.1-0.4c0-0.1-0.1-0.3-0.1-0.4
	c0-0.2-0.1-0.3-0.1-0.4c0-0.2-0.1-0.3-0.1-0.5c0-0.2,0-0.3-0.1-0.5c0-0.2,0-0.3-0.1-0.5c0-0.2,0-0.3,0-0.5c0-0.2,0-0.3,0-0.5
	c0-0.2,0-0.3,0-0.5c0-0.2,0-0.3,0-0.5c0-0.2,0-0.3,0-0.5c0-0.1,0-0.3,0-0.5c0-0.2,0-0.3,0-0.5c0-0.2,0-0.3,0-0.5c0-0.1,0-0.3,0-0.5
	c0-0.2,0-0.3,0-0.5c0-0.1,0-0.3,0-0.5c0-0.2,0-0.3,0.1-0.5c0-0.2,0-0.3,0.1-0.5c0-0.2,0-0.3,0.1-0.5c0-0.1,0.1-0.3,0.1-0.4
	c0-0.2,0.1-0.3,0.1-0.5c0-0.2,0.1-0.3,0.1-0.4c0-0.2,0.1-0.3,0.1-0.5c0-0.1,0.1-0.3,0.1-0.4c0-0.1,0.1-0.3,0.1-0.4
	c0-0.2,0.1-0.3,0.1-0.4c0.1-0.1,0.1-0.3,0.2-0.4c0-0.2,0.1-0.3,0.2-0.4l0.2-0.4c0.1-0.1,0.1-0.3,0.2-0.4s0.1-0.3,0.2-0.4
	c0.1-0.1,0.1-0.3,0.2-0.4s0.1-0.3,0.2-0.4s0.2-0.3,0.2-0.4c0.1-0.1,0.2-0.3,0.2-0.4c0.1-0.1,0.1-0.2,0.2-0.4
	c2.8-4.4,6.7-6.8,11.4-7.7c0.7-0.1,1.5-0.1,2.2-0.1c0.7,0,1.5,0.1,2.2,0.2c0.1,0,0.3,0,0.4,0.1c0.1,0,0.3,0,0.4,0.1
	c0.1,0,0.3,0.1,0.4,0.1c0.1,0,0.3,0.1,0.4,0.1c0.1,0,0.3,0.1,0.4,0.1c0.1,0,0.3,0.1,0.4,0.1c0.1,0,0.3,0.1,0.4,0.1
	c0.1,0,0.3,0.1,0.4,0.1c0.1,0,0.2,0.1,0.4,0.2c0.1,0,0.2,0.1,0.4,0.2c0.1,0.1,0.2,0.1,0.4,0.2c0.1,0.1,0.2,0.1,0.4,0.2
	c0.1,0.1,0.2,0.1,0.4,0.2c0.1,0.1,0.2,0.1,0.4,0.2s0.2,0.2,0.3,0.2c0.1,0.1,0.2,0.1,0.4,0.2c0.1,0.1,0.2,0.2,0.3,0.2
	c0.1,0.1,0.2,0.2,0.3,0.2c0.1,0.1,0.2,0.2,0.3,0.3c0.1,0.1,0.2,0.2,0.3,0.3c0.1,0.1,0.2,0.2,0.3,0.3c0.1,0.1,0.2,0.2,0.3,0.3
	c0.1,0.1,0.2,0.2,0.3,0.3c0.1,0.1,0.2,0.2,0.3,0.3c0.1,0.1,0.2,0.2,0.3,0.3c0.1,0.1,0.2,0.2,0.3,0.3c0.1,0.1,0.2,0.2,0.3,0.3
	c0.1,0.1,0.2,0.2,0.3,0.3c0.1,0.1,0.2,0.2,0.3,0.3c0.1,0.1,0.2,0.2,0.3,0.4c0.1,0.1,0.2,0.2,0.2,0.4c0.1,0.1,0.2,0.2,0.2,0.4
	c0.1,0.1,0.2,0.2,0.2,0.4c0.1,0.1,0.2,0.2,0.2,0.4c0.1,0.1,0.2,0.2,0.2,0.4c0.1,0.1,0.2,0.3,0.2,0.4s0.1,0.3,0.2,0.4
	c0.1,0.1,0.1,0.3,0.2,0.4c0.1,0.1,0.1,0.3,0.2,0.4c0.1,0.1,0.1,0.3,0.2,0.4c0.1,0.1,0.1,0.3,0.2,0.4c0,0.1,0.1,0.3,0.2,0.4
	c0.1,0.1,0.1,0.3,0.2,0.4c0,0.2,0.1,0.3,0.1,0.4c0.1,0.1,0.1,0.3,0.1,0.4c0,0.2,0.1,0.3,0.1,0.4c0,0.2,0.1,0.3,0.1,0.4
	c0,0.2,0.1,0.3,0.1,0.5c0,0.2,0.1,0.3,0.1,0.5c0,0.2,0.1,0.3,0.1,0.5c0,0.1,0,0.3,0.1,0.5c0,0.1,0,0.3,0.1,0.5c0,0.2,0,0.3,0.1,0.5
	c0,0.2,0,0.3,0.1,0.5c0,0.2,0,0.3,0,0.5c0,0.2,0,0.3,0,0.5c0,0.2,0,0.3,0,0.5V30.8z M144.9,25.7v9.4h-8.3v-9.4H144.9z"/>
</svg>
